<mxfile host="app.diagrams.net" agent="Mozilla/5.0 (Windows NT 10.0; Win64; x64) AppleWebKit/537.36 (KHTML, like Gecko) Chrome/131.0.0.0 Safari/537.36 Edg/131.0.0.0" version="26.0.4">
  <diagram name="Page-1" id="929967ad-93f9-6ef4-fab6-5d389245f69c">
    <mxGraphModel dx="1426" dy="757" grid="1" gridSize="10" guides="1" tooltips="1" connect="1" arrows="1" fold="1" page="1" pageScale="1.5" pageWidth="1169" pageHeight="826" background="none" math="0" shadow="0">
      <root>
        <mxCell id="0" style=";html=1;" />
        <mxCell id="1" style=";html=1;" parent="0" />
        <mxCell id="Y8c9BuJqbC9oYciuyHQA-7" style="edgeStyle=orthogonalEdgeStyle;rounded=0;orthogonalLoop=1;jettySize=auto;html=1;exitX=0.5;exitY=0;exitDx=0;exitDy=0;entryX=0.5;entryY=1;entryDx=0;entryDy=0;endArrow=block;endFill=0;endSize=19;" parent="1" source="Y8c9BuJqbC9oYciuyHQA-1" target="Y8c9BuJqbC9oYciuyHQA-6" edge="1">
          <mxGeometry relative="1" as="geometry" />
        </mxCell>
        <mxCell id="Y8c9BuJqbC9oYciuyHQA-1" value="Game" style="swimlane;fontStyle=1;align=center;verticalAlign=top;childLayout=stackLayout;horizontal=1;startSize=26;horizontalStack=0;resizeParent=1;resizeParentMax=0;resizeLast=0;collapsible=1;marginBottom=0;whiteSpace=wrap;html=1;" parent="1" vertex="1">
          <mxGeometry x="600" y="156" width="260" height="620" as="geometry" />
        </mxCell>
        <mxCell id="Y8c9BuJqbC9oYciuyHQA-2" value="+ WIDTH: int" style="text;strokeColor=none;fillColor=none;align=left;verticalAlign=top;spacingLeft=4;spacingRight=4;overflow=hidden;rotatable=0;points=[[0,0.5],[1,0.5]];portConstraint=eastwest;whiteSpace=wrap;html=1;" parent="Y8c9BuJqbC9oYciuyHQA-1" vertex="1">
          <mxGeometry y="26" width="260" height="26" as="geometry" />
        </mxCell>
        <mxCell id="E0p9bsgSMYyBNXJmVAST-1" value="+ HEIGHT: int" style="text;strokeColor=none;fillColor=none;align=left;verticalAlign=top;spacingLeft=4;spacingRight=4;overflow=hidden;rotatable=0;points=[[0,0.5],[1,0.5]];portConstraint=eastwest;whiteSpace=wrap;html=1;" parent="Y8c9BuJqbC9oYciuyHQA-1" vertex="1">
          <mxGeometry y="52" width="260" height="26" as="geometry" />
        </mxCell>
        <mxCell id="E0p9bsgSMYyBNXJmVAST-2" value="- currentContext: BufferedGraphicsContext" style="text;strokeColor=none;fillColor=none;align=left;verticalAlign=top;spacingLeft=4;spacingRight=4;overflow=hidden;rotatable=0;points=[[0,0.5],[1,0.5]];portConstraint=eastwest;whiteSpace=wrap;html=1;" parent="Y8c9BuJqbC9oYciuyHQA-1" vertex="1">
          <mxGeometry y="78" width="260" height="26" as="geometry" />
        </mxCell>
        <mxCell id="E0p9bsgSMYyBNXJmVAST-4" value="- game: BufferedGraphics" style="text;strokeColor=none;fillColor=none;align=left;verticalAlign=top;spacingLeft=4;spacingRight=4;overflow=hidden;rotatable=0;points=[[0,0.5],[1,0.5]];portConstraint=eastwest;whiteSpace=wrap;html=1;" parent="Y8c9BuJqbC9oYciuyHQA-1" vertex="1">
          <mxGeometry y="104" width="260" height="26" as="geometry" />
        </mxCell>
        <mxCell id="E0p9bsgSMYyBNXJmVAST-5" value="- score: int" style="text;strokeColor=none;fillColor=none;align=left;verticalAlign=top;spacingLeft=4;spacingRight=4;overflow=hidden;rotatable=0;points=[[0,0.5],[1,0.5]];portConstraint=eastwest;whiteSpace=wrap;html=1;" parent="Y8c9BuJqbC9oYciuyHQA-1" vertex="1">
          <mxGeometry y="130" width="260" height="26" as="geometry" />
        </mxCell>
        <mxCell id="E0p9bsgSMYyBNXJmVAST-6" value="- drawFont: Font&lt;span style=&quot;white-space: pre;&quot;&gt;&#x9;&lt;/span&gt;" style="text;strokeColor=none;fillColor=none;align=left;verticalAlign=top;spacingLeft=4;spacingRight=4;overflow=hidden;rotatable=0;points=[[0,0.5],[1,0.5]];portConstraint=eastwest;whiteSpace=wrap;html=1;" parent="Y8c9BuJqbC9oYciuyHQA-1" vertex="1">
          <mxGeometry y="156" width="260" height="26" as="geometry" />
        </mxCell>
        <mxCell id="E0p9bsgSMYyBNXJmVAST-7" value="- writingBrush: SolidBrush" style="text;strokeColor=none;fillColor=none;align=left;verticalAlign=top;spacingLeft=4;spacingRight=4;overflow=hidden;rotatable=0;points=[[0,0.5],[1,0.5]];portConstraint=eastwest;whiteSpace=wrap;html=1;" parent="Y8c9BuJqbC9oYciuyHQA-1" vertex="1">
          <mxGeometry y="182" width="260" height="26" as="geometry" />
        </mxCell>
        <mxCell id="E0p9bsgSMYyBNXJmVAST-9" value="- ticker: Timer&lt;div&gt;&lt;br&gt;&lt;/div&gt;&lt;div&gt;- _rectangle : Rectangle&lt;/div&gt;&lt;div&gt;&lt;br&gt;&lt;/div&gt;&lt;div&gt;- _fenetre: Rectangle&lt;/div&gt;&lt;div&gt;&lt;br&gt;&lt;/div&gt;&lt;div&gt;- _isKeyPressedUp : bool&lt;/div&gt;&lt;div&gt;&lt;br&gt;&lt;/div&gt;&lt;div&gt;- _isKeyPressedDown : bool&lt;/div&gt;&lt;div&gt;&lt;br&gt;&lt;/div&gt;&lt;div&gt;- _isKeyPressedRight: bool&lt;/div&gt;&lt;div&gt;&lt;br&gt;&lt;/div&gt;&lt;div&gt;- _isKeyPressedLeft : bool&lt;/div&gt;" style="text;strokeColor=none;fillColor=none;align=left;verticalAlign=top;spacingLeft=4;spacingRight=4;overflow=hidden;rotatable=0;points=[[0,0.5],[1,0.5]];portConstraint=eastwest;whiteSpace=wrap;html=1;" parent="Y8c9BuJqbC9oYciuyHQA-1" vertex="1">
          <mxGeometry y="208" width="260" height="212" as="geometry" />
        </mxCell>
        <mxCell id="Y8c9BuJqbC9oYciuyHQA-3" value="" style="line;strokeWidth=1;fillColor=none;align=left;verticalAlign=middle;spacingTop=-1;spacingLeft=3;spacingRight=3;rotatable=0;labelPosition=right;points=[];portConstraint=eastwest;strokeColor=inherit;" parent="Y8c9BuJqbC9oYciuyHQA-1" vertex="1">
          <mxGeometry y="420" width="260" height="8" as="geometry" />
        </mxCell>
        <mxCell id="Y8c9BuJqbC9oYciuyHQA-4" value="- NewFrame(object, EventArgs): void" style="text;strokeColor=none;fillColor=none;align=left;verticalAlign=top;spacingLeft=4;spacingRight=4;overflow=hidden;rotatable=0;points=[[0,0.5],[1,0.5]];portConstraint=eastwest;whiteSpace=wrap;html=1;" parent="Y8c9BuJqbC9oYciuyHQA-1" vertex="1">
          <mxGeometry y="428" width="260" height="26" as="geometry" />
        </mxCell>
        <mxCell id="E0p9bsgSMYyBNXJmVAST-8" value="- VerifyCollision(): void" style="text;strokeColor=none;fillColor=none;align=left;verticalAlign=top;spacingLeft=4;spacingRight=4;overflow=hidden;rotatable=0;points=[[0,0.5],[1,0.5]];portConstraint=eastwest;whiteSpace=wrap;html=1;" parent="Y8c9BuJqbC9oYciuyHQA-1" vertex="1">
          <mxGeometry y="454" width="260" height="26" as="geometry" />
        </mxCell>
        <mxCell id="E0p9bsgSMYyBNXJmVAST-10" value="- UpdatePosition(): void" style="text;strokeColor=none;fillColor=none;align=left;verticalAlign=top;spacingLeft=4;spacingRight=4;overflow=hidden;rotatable=0;points=[[0,0.5],[1,0.5]];portConstraint=eastwest;whiteSpace=wrap;html=1;" parent="Y8c9BuJqbC9oYciuyHQA-1" vertex="1">
          <mxGeometry y="480" width="260" height="26" as="geometry" />
        </mxCell>
        <mxCell id="E0p9bsgSMYyBNXJmVAST-11" value="- Render(): void" style="text;strokeColor=none;fillColor=none;align=left;verticalAlign=top;spacingLeft=4;spacingRight=4;overflow=hidden;rotatable=0;points=[[0,0.5],[1,0.5]];portConstraint=eastwest;whiteSpace=wrap;html=1;" parent="Y8c9BuJqbC9oYciuyHQA-1" vertex="1">
          <mxGeometry y="506" width="260" height="26" as="geometry" />
        </mxCell>
        <mxCell id="E0p9bsgSMYyBNXJmVAST-12" value="- PressKey(object, KeyEventArgs): void" style="text;strokeColor=none;fillColor=none;align=left;verticalAlign=top;spacingLeft=4;spacingRight=4;overflow=hidden;rotatable=0;points=[[0,0.5],[1,0.5]];portConstraint=eastwest;whiteSpace=wrap;html=1;" parent="Y8c9BuJqbC9oYciuyHQA-1" vertex="1">
          <mxGeometry y="532" width="260" height="26" as="geometry" />
        </mxCell>
        <mxCell id="E0p9bsgSMYyBNXJmVAST-13" value="- UpdateColission(int, int): void" style="text;strokeColor=none;fillColor=none;align=left;verticalAlign=top;spacingLeft=4;spacingRight=4;overflow=hidden;rotatable=0;points=[[0,0.5],[1,0.5]];portConstraint=eastwest;whiteSpace=wrap;html=1;" parent="Y8c9BuJqbC9oYciuyHQA-1" vertex="1">
          <mxGeometry y="558" width="260" height="26" as="geometry" />
        </mxCell>
        <mxCell id="E0p9bsgSMYyBNXJmVAST-14" value="- SpawnSlime(): void" style="text;strokeColor=none;fillColor=none;align=left;verticalAlign=top;spacingLeft=4;spacingRight=4;overflow=hidden;rotatable=0;points=[[0,0.5],[1,0.5]];portConstraint=eastwest;whiteSpace=wrap;html=1;" parent="Y8c9BuJqbC9oYciuyHQA-1" vertex="1">
          <mxGeometry y="584" width="260" height="36" as="geometry" />
        </mxCell>
        <mxCell id="Y8c9BuJqbC9oYciuyHQA-6" value="Form" style="html=1;whiteSpace=wrap;" parent="1" vertex="1">
          <mxGeometry x="670" y="40" width="110" height="50" as="geometry" />
        </mxCell>
        <mxCell id="E0p9bsgSMYyBNXJmVAST-16" style="edgeStyle=orthogonalEdgeStyle;rounded=0;orthogonalLoop=1;jettySize=auto;html=1;exitX=0.75;exitY=0;exitDx=0;exitDy=0;entryX=0;entryY=0.5;entryDx=0;entryDy=0;endArrow=diamondThin;endFill=1;strokeWidth=1;endSize=19;" parent="1" source="Y8c9BuJqbC9oYciuyHQA-39" target="E0p9bsgSMYyBNXJmVAST-6" edge="1">
          <mxGeometry relative="1" as="geometry" />
        </mxCell>
        <mxCell id="E0p9bsgSMYyBNXJmVAST-28" value="- spawns" style="edgeLabel;html=1;align=center;verticalAlign=middle;resizable=0;points=[];" parent="E0p9bsgSMYyBNXJmVAST-16" connectable="0" vertex="1">
          <mxGeometry x="-0.9589" relative="1" as="geometry">
            <mxPoint x="-20" y="-9" as="offset" />
          </mxGeometry>
        </mxCell>
        <mxCell id="E0p9bsgSMYyBNXJmVAST-29" value="0-4" style="edgeLabel;html=1;align=center;verticalAlign=middle;resizable=0;points=[];" parent="E0p9bsgSMYyBNXJmVAST-16" connectable="0" vertex="1">
          <mxGeometry x="-0.9421" y="-1" relative="1" as="geometry">
            <mxPoint x="19" y="-7" as="offset" />
          </mxGeometry>
        </mxCell>
        <mxCell id="Y8c9BuJqbC9oYciuyHQA-39" value="Spawn" style="swimlane;fontStyle=1;align=center;verticalAlign=top;childLayout=stackLayout;horizontal=1;startSize=26;horizontalStack=0;resizeParent=1;resizeParentMax=0;resizeLast=0;collapsible=1;marginBottom=0;whiteSpace=wrap;html=1;" parent="1" vertex="1" collapsed="1">
          <mxGeometry x="440" y="353" width="80" height="30" as="geometry">
            <mxRectangle x="280" y="436" width="160" height="34" as="alternateBounds" />
          </mxGeometry>
        </mxCell>
        <mxCell id="Y8c9BuJqbC9oYciuyHQA-41" value="" style="line;strokeWidth=1;fillColor=none;align=left;verticalAlign=middle;spacingTop=-1;spacingLeft=3;spacingRight=3;rotatable=0;labelPosition=right;points=[];portConstraint=eastwest;strokeColor=inherit;" parent="Y8c9BuJqbC9oYciuyHQA-39" vertex="1">
          <mxGeometry y="26" width="160" height="8" as="geometry" />
        </mxCell>
        <mxCell id="E0p9bsgSMYyBNXJmVAST-15" style="edgeStyle=orthogonalEdgeStyle;rounded=0;orthogonalLoop=1;jettySize=auto;html=1;exitX=0.5;exitY=0;exitDx=0;exitDy=0;entryX=0;entryY=0.5;entryDx=0;entryDy=0;endArrow=diamondThin;endFill=1;endSize=19;" parent="1" source="Y8c9BuJqbC9oYciuyHQA-43" target="Y8c9BuJqbC9oYciuyHQA-2" edge="1">
          <mxGeometry relative="1" as="geometry" />
        </mxCell>
        <mxCell id="E0p9bsgSMYyBNXJmVAST-26" value="- rocks" style="edgeLabel;html=1;align=center;verticalAlign=middle;resizable=0;points=[];" parent="E0p9bsgSMYyBNXJmVAST-15" connectable="0" vertex="1">
          <mxGeometry x="-0.9442" y="1" relative="1" as="geometry">
            <mxPoint x="-19" y="-1" as="offset" />
          </mxGeometry>
        </mxCell>
        <mxCell id="E0p9bsgSMYyBNXJmVAST-27" value="0..3" style="edgeLabel;html=1;align=center;verticalAlign=middle;resizable=0;points=[];" parent="E0p9bsgSMYyBNXJmVAST-15" connectable="0" vertex="1">
          <mxGeometry x="-0.9286" y="1" relative="1" as="geometry">
            <mxPoint x="11" y="1" as="offset" />
          </mxGeometry>
        </mxCell>
        <mxCell id="Y8c9BuJqbC9oYciuyHQA-43" value="Rock" style="swimlane;fontStyle=1;align=center;verticalAlign=top;childLayout=stackLayout;horizontal=1;startSize=26;horizontalStack=0;resizeParent=1;resizeParentMax=0;resizeLast=0;collapsible=1;marginBottom=0;whiteSpace=wrap;html=1;" parent="1" vertex="1" collapsed="1">
          <mxGeometry x="410" y="260" width="70" height="30" as="geometry">
            <mxRectangle x="280" y="270" width="160" height="34" as="alternateBounds" />
          </mxGeometry>
        </mxCell>
        <mxCell id="Y8c9BuJqbC9oYciuyHQA-45" value="" style="line;strokeWidth=1;fillColor=none;align=left;verticalAlign=middle;spacingTop=-1;spacingLeft=3;spacingRight=3;rotatable=0;labelPosition=right;points=[];portConstraint=eastwest;strokeColor=inherit;" parent="Y8c9BuJqbC9oYciuyHQA-43" vertex="1">
          <mxGeometry y="26" width="160" height="8" as="geometry" />
        </mxCell>
        <mxCell id="E0p9bsgSMYyBNXJmVAST-18" style="edgeStyle=orthogonalEdgeStyle;rounded=0;orthogonalLoop=1;jettySize=auto;html=1;exitX=0.25;exitY=0;exitDx=0;exitDy=0;entryX=0;entryY=0.5;entryDx=0;entryDy=0;endArrow=diamondThin;endFill=1;endSize=19;" parent="1" source="Y8c9BuJqbC9oYciuyHQA-52" target="E0p9bsgSMYyBNXJmVAST-10" edge="1">
          <mxGeometry relative="1" as="geometry" />
        </mxCell>
        <mxCell id="E0p9bsgSMYyBNXJmVAST-20" value="- slimes" style="edgeLabel;html=1;align=center;verticalAlign=middle;resizable=0;points=[];" parent="E0p9bsgSMYyBNXJmVAST-18" connectable="0" vertex="1">
          <mxGeometry x="-0.8506" y="2" relative="1" as="geometry">
            <mxPoint x="17" y="-18" as="offset" />
          </mxGeometry>
        </mxCell>
        <mxCell id="E0p9bsgSMYyBNXJmVAST-21" value="0-4" style="edgeLabel;html=1;align=center;verticalAlign=middle;resizable=0;points=[];" parent="E0p9bsgSMYyBNXJmVAST-18" connectable="0" vertex="1">
          <mxGeometry x="-0.7445" y="2" relative="1" as="geometry">
            <mxPoint x="15" y="2" as="offset" />
          </mxGeometry>
        </mxCell>
        <mxCell id="Y8c9BuJqbC9oYciuyHQA-52" value="Slime" style="swimlane;fontStyle=1;align=center;verticalAlign=top;childLayout=stackLayout;horizontal=1;startSize=26;horizontalStack=0;resizeParent=1;resizeParentMax=0;resizeLast=0;collapsible=1;marginBottom=0;whiteSpace=wrap;html=1;" parent="1" vertex="1" collapsed="1">
          <mxGeometry x="360" y="560" width="70" height="30" as="geometry">
            <mxRectangle x="480" y="650" width="160" height="60" as="alternateBounds" />
          </mxGeometry>
        </mxCell>
        <mxCell id="Y8c9BuJqbC9oYciuyHQA-54" value="" style="line;strokeWidth=1;fillColor=none;align=left;verticalAlign=middle;spacingTop=-1;spacingLeft=3;spacingRight=3;rotatable=0;labelPosition=right;points=[];portConstraint=eastwest;strokeColor=inherit;" parent="Y8c9BuJqbC9oYciuyHQA-52" vertex="1">
          <mxGeometry y="26" width="160" height="8" as="geometry" />
        </mxCell>
        <mxCell id="Y8c9BuJqbC9oYciuyHQA-55" value="+ Move(Rectangle): void" style="text;strokeColor=none;fillColor=none;align=left;verticalAlign=top;spacingLeft=4;spacingRight=4;overflow=hidden;rotatable=0;points=[[0,0.5],[1,0.5]];portConstraint=eastwest;whiteSpace=wrap;html=1;" parent="Y8c9BuJqbC9oYciuyHQA-52" vertex="1">
          <mxGeometry y="34" width="160" height="26" as="geometry" />
        </mxCell>
        <mxCell id="Y8c9BuJqbC9oYciuyHQA-56" value="Witch" style="swimlane;fontStyle=1;align=center;verticalAlign=top;childLayout=stackLayout;horizontal=1;startSize=26;horizontalStack=0;resizeParent=1;resizeParentMax=0;resizeLast=0;collapsible=1;marginBottom=0;whiteSpace=wrap;html=1;" parent="1" vertex="1" collapsed="1">
          <mxGeometry x="900" y="260" width="70" height="30" as="geometry">
            <mxRectangle x="877" y="250" width="160" height="86" as="alternateBounds" />
          </mxGeometry>
        </mxCell>
        <mxCell id="Y8c9BuJqbC9oYciuyHQA-58" value="" style="line;strokeWidth=1;fillColor=none;align=left;verticalAlign=middle;spacingTop=-1;spacingLeft=3;spacingRight=3;rotatable=0;labelPosition=right;points=[];portConstraint=eastwest;strokeColor=inherit;" parent="Y8c9BuJqbC9oYciuyHQA-56" vertex="1">
          <mxGeometry y="26" width="160" height="8" as="geometry" />
        </mxCell>
        <mxCell id="Y8c9BuJqbC9oYciuyHQA-59" value="+ Move(type): type" style="text;strokeColor=none;fillColor=none;align=left;verticalAlign=top;spacingLeft=4;spacingRight=4;overflow=hidden;rotatable=0;points=[[0,0.5],[1,0.5]];portConstraint=eastwest;whiteSpace=wrap;html=1;" parent="Y8c9BuJqbC9oYciuyHQA-56" vertex="1">
          <mxGeometry y="34" width="160" height="26" as="geometry" />
        </mxCell>
        <mxCell id="Y8c9BuJqbC9oYciuyHQA-66" value="+ PreventOutside(): void" style="text;strokeColor=none;fillColor=none;align=left;verticalAlign=top;spacingLeft=4;spacingRight=4;overflow=hidden;rotatable=0;points=[[0,0.5],[1,0.5]];portConstraint=eastwest;whiteSpace=wrap;html=1;" parent="Y8c9BuJqbC9oYciuyHQA-56" vertex="1">
          <mxGeometry y="60" width="160" height="26" as="geometry" />
        </mxCell>
        <mxCell id="Y8c9BuJqbC9oYciuyHQA-73" value="Projectil" style="swimlane;fontStyle=1;align=center;verticalAlign=top;childLayout=stackLayout;horizontal=1;startSize=26;horizontalStack=0;resizeParent=1;resizeParentMax=0;resizeLast=0;collapsible=1;marginBottom=0;whiteSpace=wrap;html=1;" parent="1" vertex="1" collapsed="1">
          <mxGeometry x="1030" y="360" width="80" height="30" as="geometry">
            <mxRectangle x="1040" y="470" width="160" height="138" as="alternateBounds" />
          </mxGeometry>
        </mxCell>
        <mxCell id="Y8c9BuJqbC9oYciuyHQA-74" value="- deplacementX: int" style="text;strokeColor=none;fillColor=none;align=left;verticalAlign=top;spacingLeft=4;spacingRight=4;overflow=hidden;rotatable=0;points=[[0,0.5],[1,0.5]];portConstraint=eastwest;whiteSpace=wrap;html=1;" parent="Y8c9BuJqbC9oYciuyHQA-73" vertex="1">
          <mxGeometry y="26" width="160" height="26" as="geometry" />
        </mxCell>
        <mxCell id="Y8c9BuJqbC9oYciuyHQA-77" value="- deplacementY: int" style="text;strokeColor=none;fillColor=none;align=left;verticalAlign=top;spacingLeft=4;spacingRight=4;overflow=hidden;rotatable=0;points=[[0,0.5],[1,0.5]];portConstraint=eastwest;whiteSpace=wrap;html=1;" parent="Y8c9BuJqbC9oYciuyHQA-73" vertex="1">
          <mxGeometry y="52" width="160" height="26" as="geometry" />
        </mxCell>
        <mxCell id="Y8c9BuJqbC9oYciuyHQA-75" value="" style="line;strokeWidth=1;fillColor=none;align=left;verticalAlign=middle;spacingTop=-1;spacingLeft=3;spacingRight=3;rotatable=0;labelPosition=right;points=[];portConstraint=eastwest;strokeColor=inherit;" parent="Y8c9BuJqbC9oYciuyHQA-73" vertex="1">
          <mxGeometry y="78" width="160" height="8" as="geometry" />
        </mxCell>
        <mxCell id="Y8c9BuJqbC9oYciuyHQA-76" value="+ MoveProjectil(): void" style="text;strokeColor=none;fillColor=none;align=left;verticalAlign=top;spacingLeft=4;spacingRight=4;overflow=hidden;rotatable=0;points=[[0,0.5],[1,0.5]];portConstraint=eastwest;whiteSpace=wrap;html=1;" parent="Y8c9BuJqbC9oYciuyHQA-73" vertex="1">
          <mxGeometry y="86" width="160" height="26" as="geometry" />
        </mxCell>
        <mxCell id="Y8c9BuJqbC9oYciuyHQA-78" value="+ IsInside(): bool" style="text;strokeColor=none;fillColor=none;align=left;verticalAlign=top;spacingLeft=4;spacingRight=4;overflow=hidden;rotatable=0;points=[[0,0.5],[1,0.5]];portConstraint=eastwest;whiteSpace=wrap;html=1;" parent="Y8c9BuJqbC9oYciuyHQA-73" vertex="1">
          <mxGeometry y="112" width="160" height="26" as="geometry" />
        </mxCell>
        <mxCell id="E0p9bsgSMYyBNXJmVAST-30" style="edgeStyle=orthogonalEdgeStyle;rounded=0;orthogonalLoop=1;jettySize=auto;html=1;exitX=1;exitY=0.5;exitDx=0;exitDy=0;entryX=0.381;entryY=-0.001;entryDx=0;entryDy=0;entryPerimeter=0;endArrow=none;endFill=0;startArrow=diamondThin;startFill=0;endSize=18;startSize=19;" parent="1" source="Y8c9BuJqbC9oYciuyHQA-59" target="Y8c9BuJqbC9oYciuyHQA-73" edge="1">
          <mxGeometry relative="1" as="geometry" />
        </mxCell>
        <mxCell id="E0p9bsgSMYyBNXJmVAST-31" value="- projectils" style="edgeLabel;html=1;align=center;verticalAlign=middle;resizable=0;points=[];" parent="E0p9bsgSMYyBNXJmVAST-30" connectable="0" vertex="1">
          <mxGeometry x="0.789" y="1" relative="1" as="geometry">
            <mxPoint x="-31" y="2" as="offset" />
          </mxGeometry>
        </mxCell>
        <mxCell id="E0p9bsgSMYyBNXJmVAST-32" value="0-n" style="edgeLabel;html=1;align=center;verticalAlign=middle;resizable=0;points=[];" parent="E0p9bsgSMYyBNXJmVAST-30" connectable="0" vertex="1">
          <mxGeometry x="0.3315" relative="1" as="geometry">
            <mxPoint x="19" y="49" as="offset" />
          </mxGeometry>
        </mxCell>
        <mxCell id="t5G83izsqxw7-g7JSgro-2" style="edgeStyle=orthogonalEdgeStyle;rounded=0;orthogonalLoop=1;jettySize=auto;html=1;entryX=1.005;entryY=0.104;entryDx=0;entryDy=0;entryPerimeter=0;startArrow=none;startFill=0;endArrow=diamondThin;endFill=1;endSize=19;" parent="1" source="Y8c9BuJqbC9oYciuyHQA-56" target="E0p9bsgSMYyBNXJmVAST-10" edge="1">
          <mxGeometry relative="1" as="geometry" />
        </mxCell>
        <mxCell id="t5G83izsqxw7-g7JSgro-3" value="0...1" style="edgeLabel;html=1;align=center;verticalAlign=middle;resizable=0;points=[];" parent="1" connectable="0" vertex="1">
          <mxGeometry x="480" y="259.9966666666666" as="geometry">
            <mxPoint x="93" y="-49" as="offset" />
          </mxGeometry>
        </mxCell>
        <mxCell id="t5G83izsqxw7-g7JSgro-4" value="0...1" style="edgeLabel;html=1;align=center;verticalAlign=middle;resizable=0;points=[];" parent="1" connectable="0" vertex="1">
          <mxGeometry x="490" y="303.9966666666666" as="geometry">
            <mxPoint x="83" y="39" as="offset" />
          </mxGeometry>
        </mxCell>
        <mxCell id="t5G83izsqxw7-g7JSgro-5" value="0...1" style="edgeLabel;html=1;align=center;verticalAlign=middle;resizable=0;points=[];" parent="1" connectable="0" vertex="1">
          <mxGeometry x="490" y="589.9966666666667" as="geometry">
            <mxPoint x="83" y="39" as="offset" />
          </mxGeometry>
        </mxCell>
        <mxCell id="t5G83izsqxw7-g7JSgro-6" value="1" style="edgeLabel;html=1;align=center;verticalAlign=middle;resizable=0;points=[];" parent="1" connectable="0" vertex="1">
          <mxGeometry x="910" y="219.9966666666666" as="geometry">
            <mxPoint x="83" y="39" as="offset" />
          </mxGeometry>
        </mxCell>
        <mxCell id="t5G83izsqxw7-g7JSgro-7" value="1" style="edgeLabel;html=1;align=center;verticalAlign=middle;resizable=0;points=[];" parent="1" connectable="0" vertex="1">
          <mxGeometry x="840" y="259.9966666666666" as="geometry">
            <mxPoint x="83" y="39" as="offset" />
          </mxGeometry>
        </mxCell>
        <mxCell id="t5G83izsqxw7-g7JSgro-8" value="0...1" style="edgeLabel;html=1;align=center;verticalAlign=middle;resizable=0;points=[];" parent="1" connectable="0" vertex="1">
          <mxGeometry x="790" y="569.9966666666667" as="geometry">
            <mxPoint x="83" y="39" as="offset" />
          </mxGeometry>
        </mxCell>
        <mxCell id="I14amg3fmwHpuAr82EPz-16" value="" style="group" vertex="1" connectable="0" parent="1">
          <mxGeometry x="960" y="156" width="115" height="83" as="geometry" />
        </mxCell>
        <mxCell id="I14amg3fmwHpuAr82EPz-9" value="Direction" style="swimlane;fontStyle=1;align=center;verticalAlign=top;childLayout=stackLayout;horizontal=1;startSize=26;horizontalStack=0;resizeParent=1;resizeParentMax=0;resizeLast=0;collapsible=1;marginBottom=0;whiteSpace=wrap;html=1;" vertex="1" collapsed="1" parent="I14amg3fmwHpuAr82EPz-16">
          <mxGeometry width="110" height="83" as="geometry">
            <mxRectangle x="280" y="270" width="160" height="34" as="alternateBounds" />
          </mxGeometry>
        </mxCell>
        <mxCell id="I14amg3fmwHpuAr82EPz-10" value="" style="line;strokeWidth=1;fillColor=none;align=left;verticalAlign=middle;spacingTop=-1;spacingLeft=3;spacingRight=3;rotatable=0;labelPosition=right;points=[];portConstraint=eastwest;strokeColor=inherit;" vertex="1" parent="I14amg3fmwHpuAr82EPz-9">
          <mxGeometry y="26" width="160" height="8" as="geometry" />
        </mxCell>
        <mxCell id="I14amg3fmwHpuAr82EPz-15" value="+ Direction(): enum" style="text;html=1;align=center;verticalAlign=middle;resizable=0;points=[];autosize=1;strokeColor=none;fillColor=none;" vertex="1" parent="I14amg3fmwHpuAr82EPz-16">
          <mxGeometry x="-15" y="36.5" width="130" height="30" as="geometry" />
        </mxCell>
        <mxCell id="I14amg3fmwHpuAr82EPz-17" style="edgeStyle=orthogonalEdgeStyle;rounded=0;orthogonalLoop=1;jettySize=auto;html=1;entryX=1;entryY=0.5;entryDx=0;entryDy=0;" edge="1" parent="1" target="Y8c9BuJqbC9oYciuyHQA-2">
          <mxGeometry relative="1" as="geometry">
            <mxPoint x="960" y="195" as="sourcePoint" />
          </mxGeometry>
        </mxCell>
      </root>
    </mxGraphModel>
  </diagram>
</mxfile>
